#define longhorn_lockpicking_width 232
#define longhorn_lockpicking_height 128
static unsigned char longhorn_lockpicking_bits[] = {
   0x00, 0x00, 0x00, 0x00, 0x00, 0x00, 0x00, 0x00, 0x00, 0x00, 0x00, 0x00,
   0x00, 0x00, 0x00, 0x00, 0x00, 0x00, 0x00, 0x00, 0x00, 0x00, 0x00, 0x00,
   0x00, 0x00, 0x00, 0x00, 0x00, 0x00, 0x00, 0x00, 0x00, 0x00, 0x00, 0x00,
   0x00, 0x00, 0x00, 0x00, 0x00, 0x00, 0x00, 0x00, 0x00, 0x00, 0x00, 0x00,
   0x00, 0x00, 0x00, 0x00, 0x00, 0x00, 0x00, 0x00, 0x00, 0x00, 0x00, 0x00,
   0x00, 0x00, 0x00, 0x00, 0x00, 0x00, 0x00, 0x00, 0x00, 0x00, 0x00, 0x00,
   0x00, 0x00, 0x00, 0x00, 0x00, 0x00, 0x00, 0x00, 0x00, 0x00, 0x00, 0x00,
   0x00, 0x00, 0x00, 0x00, 0x00, 0x00, 0x00, 0x00, 0x00, 0x00, 0x00, 0x00,
   0x00, 0x00, 0x00, 0x00, 0x00, 0x00, 0x00, 0x00, 0x00, 0x00, 0x00, 0x00,
   0x00, 0x00, 0x00, 0x00, 0x00, 0x00, 0x00, 0x00, 0x00, 0x00, 0x00, 0x00,
   0x00, 0x00, 0x00, 0x00, 0x00, 0x00, 0x00, 0x00, 0x00, 0x00, 0x00, 0x00,
   0x00, 0x00, 0x00, 0x00, 0x00, 0x00, 0x00, 0x00, 0x00, 0x00, 0x00, 0x00,
   0x00, 0x00, 0x00, 0x00, 0x00, 0x00, 0x00, 0x00, 0x00, 0x00, 0x00, 0x00,
   0x00, 0x00, 0x00, 0x00, 0x00, 0x00, 0x00, 0x00, 0x00, 0x00, 0x00, 0x00,
   0x00, 0x00, 0x00, 0x00, 0x00, 0x00, 0x00, 0x00, 0x00, 0x00, 0x00, 0x00,
   0x00, 0x00, 0x00, 0x00, 0x70, 0x00, 0x00, 0x00, 0x00, 0x00, 0x00, 0x00,
   0x00, 0x00, 0x00, 0x00, 0x38, 0x00, 0x00, 0x00, 0x00, 0x00, 0x00, 0x00,
   0x00, 0x00, 0x00, 0x00, 0x00, 0x00, 0x00, 0x00, 0x00, 0x7c, 0x00, 0x00,
   0x00, 0x00, 0x00, 0x00, 0x00, 0x00, 0x00, 0x00, 0x00, 0xf8, 0x00, 0x00,
   0x00, 0x00, 0x00, 0x00, 0x00, 0x00, 0x00, 0x00, 0x00, 0x00, 0x00, 0x00,
   0x00, 0x00, 0x0f, 0x00, 0x00, 0x00, 0x00, 0x00, 0x00, 0x00, 0x00, 0x00,
   0x00, 0x00, 0xc0, 0x03, 0x00, 0x00, 0x00, 0x00, 0x00, 0x00, 0x00, 0x00,
   0x00, 0x00, 0x00, 0x00, 0x00, 0x00, 0xc0, 0x03, 0x00, 0x00, 0x00, 0x00,
   0x00, 0x00, 0x00, 0x00, 0x00, 0x00, 0x00, 0x80, 0x0f, 0x00, 0x00, 0x00,
   0x00, 0x00, 0x00, 0x00, 0x00, 0x00, 0x00, 0x00, 0x00, 0x00, 0x00, 0xe0,
   0x01, 0x00, 0x00, 0x00, 0x00, 0x00, 0x00, 0x00, 0x00, 0x00, 0x00, 0x00,
   0x00, 0x1f, 0x00, 0x00, 0x00, 0x00, 0x00, 0x00, 0x00, 0x00, 0x00, 0x00,
   0x00, 0x00, 0x00, 0x00, 0xf0, 0x00, 0x00, 0x00, 0x00, 0x00, 0x00, 0x00,
   0x00, 0x00, 0x00, 0x00, 0x00, 0x00, 0x3c, 0x00, 0x00, 0x00, 0x00, 0x00,
   0x00, 0x00, 0x00, 0x00, 0x00, 0x00, 0x00, 0x00, 0x00, 0x78, 0x00, 0x00,
   0x00, 0x00, 0x00, 0x00, 0x00, 0x00, 0x00, 0x00, 0x00, 0x00, 0x00, 0x7c,
   0x00, 0x00, 0x00, 0x00, 0x00, 0x00, 0x00, 0x00, 0x00, 0x00, 0x00, 0x00,
   0x00, 0x00, 0x7c, 0x00, 0x00, 0x00, 0x00, 0x00, 0x00, 0x00, 0x00, 0x00,
   0x00, 0x00, 0x00, 0x00, 0xf8, 0x00, 0x00, 0x00, 0x00, 0x00, 0x00, 0x00,
   0x00, 0x00, 0x00, 0x00, 0x00, 0x00, 0x00, 0x3e, 0x00, 0x00, 0x00, 0x00,
   0x00, 0x00, 0x00, 0x00, 0x00, 0x00, 0x00, 0x00, 0x00, 0xf0, 0x01, 0x00,
   0x00, 0x00, 0x00, 0x00, 0x00, 0x00, 0x00, 0x00, 0x00, 0x00, 0x00, 0x00,
   0x37, 0x00, 0x00, 0x00, 0x00, 0x00, 0x00, 0x00, 0x00, 0x00, 0x00, 0x00,
   0x00, 0x00, 0xb0, 0x01, 0x00, 0x00, 0x00, 0x00, 0x00, 0x00, 0x00, 0x00,
   0x00, 0x00, 0x00, 0x00, 0x00, 0x1b, 0x00, 0x00, 0x00, 0x00, 0x00, 0x00,
   0x00, 0x00, 0x00, 0x00, 0x00, 0x00, 0x00, 0xb0, 0x03, 0x00, 0x00, 0x00,
   0x00, 0x00, 0x00, 0x00, 0x00, 0x00, 0x00, 0x00, 0x00, 0x80, 0x1b, 0x00,
   0x00, 0x00, 0x00, 0x00, 0x00, 0x00, 0x00, 0x00, 0x00, 0x00, 0x00, 0x00,
   0x20, 0x03, 0x00, 0x00, 0x00, 0x00, 0x00, 0x00, 0x00, 0x00, 0x00, 0x00,
   0x00, 0x00, 0x80, 0x19, 0x00, 0x00, 0x00, 0x00, 0x00, 0x00, 0x00, 0x00,
   0x00, 0x00, 0x00, 0x00, 0x00, 0x60, 0x02, 0x00, 0x00, 0x00, 0x00, 0x00,
   0x00, 0x00, 0x00, 0x00, 0x00, 0x00, 0x00, 0x80, 0x09, 0x00, 0x00, 0x00,
   0x00, 0x00, 0x00, 0x00, 0x00, 0x00, 0x00, 0x00, 0x00, 0x00, 0x60, 0x06,
   0x00, 0x00, 0x00, 0x00, 0x00, 0x00, 0x00, 0x00, 0x00, 0x00, 0x00, 0x00,
   0xc0, 0x08, 0x00, 0x00, 0x00, 0x00, 0x00, 0x00, 0x00, 0x00, 0x00, 0x00,
   0x00, 0x00, 0x00, 0x60, 0x06, 0x00, 0x00, 0x00, 0x00, 0x00, 0x00, 0x00,
   0x00, 0x00, 0x00, 0x00, 0x00, 0xc0, 0x08, 0x00, 0x00, 0x00, 0x00, 0x00,
   0x00, 0x00, 0x00, 0x00, 0x00, 0x00, 0x00, 0x00, 0x60, 0x04, 0x00, 0x00,
   0x00, 0x00, 0x00, 0x00, 0x00, 0x00, 0x00, 0x00, 0x00, 0x00, 0xc0, 0x08,
   0x00, 0x00, 0x00, 0x00, 0x00, 0x00, 0x00, 0x00, 0x00, 0x00, 0x00, 0x00,
   0x00, 0x60, 0x04, 0x00, 0x00, 0x00, 0x00, 0x00, 0x00, 0x00, 0x00, 0x00,
   0x00, 0x00, 0x00, 0xc0, 0x18, 0x00, 0x00, 0x00, 0x00, 0x00, 0x00, 0x00,
   0x00, 0x00, 0x00, 0x00, 0x00, 0x00, 0x20, 0x0c, 0x00, 0x00, 0x00, 0x00,
   0x00, 0x00, 0x00, 0x00, 0x00, 0x00, 0x00, 0x00, 0xc0, 0x18, 0x00, 0x00,
   0x00, 0x00, 0x00, 0x00, 0x00, 0x00, 0x00, 0x00, 0x00, 0x00, 0x00, 0x30,
   0x0c, 0x00, 0x00, 0x00, 0x00, 0x00, 0x00, 0x00, 0x00, 0x00, 0x00, 0x00,
   0x00, 0xc0, 0x30, 0x00, 0x00, 0x00, 0x00, 0x00, 0x00, 0x00, 0x00, 0x00,
   0x00, 0x00, 0x00, 0x00, 0x30, 0x0c, 0x00, 0x00, 0x00, 0x00, 0x00, 0x00,
   0x00, 0x00, 0x00, 0x00, 0x00, 0x00, 0xc0, 0x30, 0x00, 0x00, 0x00, 0x00,
   0x00, 0x00, 0x00, 0x00, 0x00, 0x00, 0x00, 0x00, 0x00, 0x30, 0x04, 0x00,
   0x00, 0x00, 0x00, 0x00, 0x00, 0x00, 0x00, 0x00, 0x00, 0x00, 0x00, 0xc0,
   0x60, 0x00, 0x00, 0x00, 0x00, 0x00, 0x00, 0x00, 0x00, 0x00, 0x00, 0x00,
   0x00, 0x00, 0x18, 0x06, 0x00, 0x00, 0x00, 0x00, 0x00, 0x00, 0x00, 0x00,
   0x00, 0x00, 0x00, 0x00, 0xc0, 0xe0, 0x00, 0x00, 0x80, 0xff, 0xff, 0x03,
   0x00, 0x00, 0xff, 0xff, 0x03, 0x00, 0x00, 0x1c, 0x06, 0x00, 0x00, 0x00,
   0x00, 0x00, 0x00, 0x00, 0x00, 0x00, 0x00, 0x00, 0x00, 0x80, 0xc1, 0x03,
   0x00, 0xf8, 0xff, 0xff, 0x0f, 0x00, 0xe0, 0xff, 0xff, 0x7f, 0x00, 0x00,
   0x0e, 0x06, 0x00, 0x00, 0x00, 0x00, 0x00, 0x00, 0x00, 0x00, 0x00, 0x00,
   0x00, 0x00, 0x80, 0x81, 0x07, 0x00, 0xff, 0x13, 0xc0, 0x3e, 0x00, 0xf0,
   0x07, 0x80, 0xff, 0x03, 0x80, 0x03, 0x06, 0x00, 0x00, 0x00, 0x00, 0x00,
   0x00, 0x00, 0x00, 0x00, 0x00, 0x00, 0x00, 0x80, 0x01, 0xff, 0xff, 0x3f,
   0x00, 0x00, 0x3e, 0xff, 0xf3, 0x01, 0x00, 0xf8, 0xff, 0xff, 0x01, 0x02,
   0x00, 0x00, 0x00, 0x00, 0x00, 0x00, 0x00, 0x00, 0x00, 0x00, 0x00, 0x00,
   0x80, 0x01, 0xfc, 0xff, 0x01, 0x00, 0x00, 0xef, 0xff, 0xcf, 0x01, 0x00,
   0x00, 0xfe, 0x7f, 0x00, 0x02, 0x00, 0x00, 0x00, 0x00, 0x00, 0x00, 0x00,
   0x00, 0x00, 0x00, 0x00, 0x00, 0x00, 0x01, 0x00, 0x02, 0x00, 0x00, 0x80,
   0xfb, 0xff, 0x3f, 0x07, 0x00, 0x00, 0x80, 0x00, 0x00, 0x01, 0x00, 0x00,
   0x00, 0x00, 0x00, 0x00, 0x00, 0x00, 0x00, 0x00, 0x00, 0x00, 0x00, 0x03,
   0x00, 0x00, 0x00, 0x00, 0xe0, 0x7e, 0x00, 0xfc, 0x0c, 0x00, 0x00, 0x00,
   0x00, 0x00, 0x01, 0x00, 0x00, 0x00, 0x00, 0x00, 0x00, 0x00, 0x00, 0x00,
   0x00, 0x00, 0x00, 0x00, 0x06, 0x00, 0x00, 0x00, 0x00, 0x30, 0x0f, 0x00,
   0xe0, 0x1b, 0x00, 0x00, 0x00, 0x00, 0x80, 0x01, 0x00, 0x00, 0x00, 0x00,
   0x00, 0x00, 0x00, 0x00, 0x00, 0x00, 0x00, 0x00, 0x00, 0x06, 0x00, 0x00,
   0x00, 0x00, 0xd8, 0x01, 0x00, 0x00, 0x37, 0x00, 0x00, 0x00, 0x00, 0x80,
   0x00, 0x00, 0x00, 0x00, 0x00, 0x1c, 0x00, 0x00, 0x00, 0x00, 0x00, 0x00,
   0x38, 0x00, 0x0c, 0x00, 0x00, 0x00, 0x00, 0xec, 0x00, 0x00, 0x00, 0x6e,
   0x00, 0x00, 0x00, 0x00, 0xc0, 0x00, 0x00, 0x00, 0x00, 0x00, 0x1e, 0x00,
   0x00, 0x00, 0x00, 0x00, 0x00, 0x38, 0x00, 0x18, 0x00, 0x00, 0x00, 0x00,
   0x74, 0x00, 0x00, 0x00, 0xd8, 0x00, 0x00, 0x00, 0x00, 0x60, 0x00, 0x00,
   0x00, 0x00, 0x00, 0x1e, 0x00, 0x00, 0x00, 0x00, 0x00, 0x00, 0x38, 0x00,
   0x30, 0x00, 0x00, 0x00, 0x00, 0x3a, 0x00, 0x00, 0x00, 0xb0, 0x01, 0x00,
   0x00, 0x00, 0x38, 0x00, 0x00, 0x00, 0x00, 0x00, 0x1e, 0x00, 0x00, 0x00,
   0x00, 0x00, 0x00, 0x38, 0x00, 0xe0, 0x00, 0x00, 0x80, 0xff, 0x1b, 0x00,
   0x00, 0x00, 0x70, 0xff, 0x07, 0x00, 0x00, 0x1e, 0x00, 0x00, 0x00, 0x00,
   0x00, 0x1e, 0x00, 0x00, 0x00, 0x00, 0x00, 0x00, 0x38, 0x00, 0xc0, 0x0f,
   0x00, 0xff, 0xff, 0x0d, 0x00, 0x00, 0x00, 0x60, 0xff, 0xff, 0x01, 0xc0,
   0x07, 0x00, 0x00, 0x00, 0x00, 0x00, 0x1e, 0x00, 0x00, 0x00, 0x00, 0x00,
   0x00, 0x38, 0x00, 0x00, 0xfe, 0xff, 0x1f, 0x00, 0x0d, 0x00, 0x00, 0x00,
   0xc0, 0x02, 0xe8, 0xff, 0xff, 0x01, 0x00, 0x00, 0x00, 0x00, 0x00, 0x1e,
   0x00, 0x00, 0x00, 0x00, 0x00, 0x00, 0x38, 0x00, 0x00, 0xc0, 0x3f, 0x00,
   0x00, 0x06, 0x00, 0x00, 0x00, 0xc0, 0x00, 0x00, 0xf0, 0x07, 0x00, 0x00,
   0x00, 0x00, 0x00, 0x00, 0x1e, 0x00, 0x3e, 0x00, 0x3f, 0x00, 0x0f, 0xb8,
   0x0f, 0xc0, 0x07, 0xcc, 0xe1, 0x03, 0x03, 0x00, 0x00, 0x00, 0x80, 0x01,
   0x00, 0x00, 0x00, 0x00, 0x00, 0x00, 0x00, 0x00, 0x00, 0x1e, 0x80, 0xff,
   0x80, 0x7f, 0xc0, 0x3f, 0xf8, 0x1f, 0xf0, 0x1f, 0xee, 0xf1, 0x0f, 0x03,
   0x00, 0x00, 0x00, 0x00, 0x01, 0x00, 0x00, 0x00, 0x00, 0x00, 0x00, 0x00,
   0x00, 0x00, 0x1e, 0xc0, 0xff, 0xc1, 0xff, 0xe0, 0x7f, 0xf8, 0x3f, 0xf8,
   0x3f, 0xfe, 0xf9, 0x1f, 0x03, 0x00, 0x00, 0x00, 0x00, 0x03, 0x00, 0x00,
   0x00, 0x00, 0x00, 0x00, 0x00, 0x00, 0x00, 0x1e, 0xe0, 0xff, 0xe3, 0xff,
   0xf1, 0xff, 0xf8, 0x7f, 0xfc, 0x7f, 0xfe, 0xfc, 0x1f, 0x03, 0x00, 0x00,
   0x00, 0x00, 0x03, 0x00, 0x00, 0x00, 0x00, 0x00, 0x00, 0x00, 0x00, 0x00,
   0x1e, 0xe0, 0xc0, 0xe3, 0xe0, 0xf9, 0xf0, 0x79, 0x78, 0x3c, 0x78, 0x3e,
   0x3c, 0x3c, 0x01, 0x00, 0x00, 0x00, 0x00, 0x07, 0x00, 0x00, 0x00, 0x00,
   0x00, 0x00, 0x00, 0x00, 0x00, 0x1e, 0x70, 0x80, 0xe3, 0xe0, 0x79, 0xe0,
   0x79, 0xf0, 0x1e, 0xf0, 0x1e, 0x1c, 0xbc, 0x01, 0x00, 0x00, 0x00, 0x00,
   0x06, 0x00, 0x00, 0x00, 0x00, 0x00, 0x00, 0x00, 0x00, 0x00, 0x1e, 0x70,
   0x80, 0x67, 0xc0, 0x3d, 0xe0, 0x39, 0xf0, 0x0e, 0xf0, 0x1e, 0x1e, 0xbc,
   0x01, 0x00, 0x00, 0x00, 0x00, 0x06, 0xf0, 0xff, 0xff, 0xff, 0xff, 0xff,
   0xff, 0xff, 0x3f, 0x1e, 0x70, 0x80, 0x67, 0xc0, 0x3d, 0xc0, 0x39, 0xf0,
   0x0e, 0xf0, 0x0e, 0x1e, 0xbc, 0x01, 0x00, 0x00, 0x00, 0x00, 0x06, 0xf8,
   0xff, 0xff, 0xff, 0xff, 0xff, 0xff, 0xff, 0x7f, 0x1e, 0x70, 0x80, 0x67,
   0xc0, 0x1d, 0xc0, 0x39, 0xf0, 0x0e, 0xe0, 0x0e, 0x1e, 0xbc, 0x01, 0x00,
   0xc8, 0xff, 0xff, 0xff, 0xff, 0xff, 0xff, 0xff, 0xff, 0xff, 0xff, 0xff,
   0x7f, 0x1e, 0x70, 0x80, 0x67, 0xc0, 0x1d, 0xc0, 0x39, 0xf0, 0x0e, 0xf0,
   0x0e, 0x1e, 0xbc, 0x01, 0x00, 0xf0, 0xfe, 0xff, 0xff, 0xff, 0xff, 0xff,
   0xff, 0xff, 0xff, 0xff, 0xff, 0x7f, 0x1e, 0x70, 0x80, 0x67, 0xc0, 0x3d,
   0xc0, 0x39, 0xf0, 0x0e, 0xf0, 0x0e, 0x1e, 0xbc, 0x01, 0x00, 0x00, 0x00,
   0x00, 0xe6, 0xff, 0xff, 0xff, 0xff, 0xff, 0xff, 0xff, 0xff, 0x7f, 0x3e,
   0x70, 0x80, 0x63, 0xc0, 0x3d, 0xc0, 0x39, 0xf0, 0x1e, 0xf0, 0x0e, 0x1e,
   0xbc, 0x01, 0x00, 0x00, 0x00, 0x00, 0x06, 0xf0, 0xff, 0xff, 0xff, 0xff,
   0xff, 0xff, 0xff, 0x3f, 0x3c, 0xf0, 0xc0, 0x63, 0xc0, 0x3d, 0xc0, 0x39,
   0xf0, 0x1c, 0x78, 0x0e, 0x1e, 0xbc, 0x01, 0x00, 0x00, 0x00, 0x00, 0x07,
   0xc0, 0xff, 0xff, 0xff, 0xff, 0xff, 0xff, 0xff, 0x0c, 0xfc, 0xe4, 0xf1,
   0x63, 0xc0, 0xf9, 0xd0, 0x39, 0xf0, 0x3c, 0x7c, 0x0e, 0x1e, 0xbc, 0x01,
   0x00, 0x00, 0x00, 0x00, 0x06, 0x00, 0x00, 0x00, 0x00, 0x00, 0x00, 0x00,
   0x00, 0x00, 0xf8, 0xef, 0xff, 0x61, 0xc0, 0xf1, 0xdf, 0x39, 0xf0, 0xfc,
   0x3f, 0x0e, 0x1e, 0x3c, 0x01, 0x00, 0x00, 0x00, 0x00, 0x03, 0x00, 0x00,
   0x00, 0x00, 0x00, 0x00, 0x00, 0x00, 0x00, 0xf0, 0xcf, 0xff, 0x60, 0xc0,
   0xe1, 0xdf, 0x39, 0xf0, 0xf8, 0x1f, 0x0e, 0x1e, 0x3c, 0x03, 0x00, 0x00,
   0x00, 0x00, 0x03, 0x00, 0x00, 0x00, 0x00, 0x00, 0x00, 0x00, 0x00, 0x00,
   0xe0, 0x87, 0x7f, 0x60, 0xc0, 0xc1, 0xdf, 0x39, 0xf0, 0xf0, 0x0f, 0x0e,
   0x1e, 0x38, 0x03, 0x00, 0x00, 0x00, 0x00, 0x03, 0x00, 0x00, 0x00, 0x00,
   0x00, 0x00, 0x00, 0x00, 0x00, 0x00, 0x00, 0x00, 0xc0, 0x07, 0x00, 0xc0,
   0x01, 0x00, 0x00, 0x1f, 0x00, 0x00, 0x00, 0x03, 0x00, 0x00, 0x00, 0x80,
   0x3d, 0x00, 0x00, 0x00, 0x00, 0x00, 0x00, 0x00, 0x00, 0x00, 0x00, 0x00,
   0x00, 0xc0, 0x0f, 0x00, 0xc0, 0x01, 0x00, 0x00, 0x1f, 0x00, 0x00, 0x00,
   0x02, 0x00, 0x00, 0x00, 0x80, 0x7f, 0x00, 0x00, 0x00, 0x00, 0x00, 0x00,
   0x00, 0x00, 0x00, 0x00, 0x00, 0x00, 0x40, 0x08, 0x00, 0xe0, 0x01, 0x00,
   0x00, 0x13, 0x00, 0x00, 0x00, 0x06, 0x00, 0x00, 0x00, 0xc0, 0x66, 0x00,
   0x00, 0x00, 0x00, 0x00, 0x00, 0x00, 0x00, 0x00, 0x00, 0x00, 0x00, 0x40,
   0x08, 0x00, 0xf0, 0x01, 0x00, 0x00, 0x13, 0x00, 0x00, 0x00, 0x0c, 0x00,
   0x0f, 0x00, 0xc0, 0x26, 0x00, 0x00, 0x07, 0x00, 0x00, 0x00, 0x00, 0x00,
   0x00, 0x00, 0x00, 0x00, 0x40, 0x08, 0x60, 0xf8, 0x00, 0x00, 0x00, 0x13,
   0x00, 0x00, 0x00, 0x18, 0x80, 0x1d, 0x00, 0x60, 0x26, 0x00, 0x80, 0x1d,
   0x00, 0x00, 0x00, 0x00, 0x00, 0x00, 0x00, 0x00, 0x00, 0x40, 0x08, 0xe0,
   0xff, 0x00, 0x00, 0x00, 0x13, 0x00, 0x00, 0x00, 0x38, 0xc0, 0x10, 0x00,
   0x70, 0x26, 0x00, 0x80, 0x18, 0x00, 0x00, 0x00, 0x00, 0x00, 0x00, 0x00,
   0x00, 0x00, 0x40, 0x08, 0xe0, 0x3f, 0x00, 0x00, 0x00, 0x13, 0x00, 0x00,
   0x00, 0x30, 0x80, 0x10, 0x00, 0x38, 0x26, 0x00, 0x80, 0x18, 0x00, 0x00,
   0x00, 0x00, 0x00, 0x00, 0x00, 0x00, 0x00, 0x40, 0x08, 0xc0, 0x0f, 0x00,
   0x00, 0x00, 0x13, 0x00, 0x00, 0x00, 0xe0, 0xd0, 0x18, 0x10, 0x1d, 0x26,
   0x00, 0x80, 0x19, 0x00, 0x00, 0x00, 0x00, 0x00, 0x00, 0x00, 0x00, 0x00,
   0x40, 0x08, 0x00, 0x00, 0x00, 0x00, 0x00, 0x13, 0x00, 0x00, 0x00, 0xc0,
   0x80, 0x0f, 0x00, 0x0e, 0x26, 0x00, 0x80, 0x0f, 0x00, 0x00, 0x00, 0x00,
   0x00, 0x00, 0x00, 0x00, 0x00, 0x40, 0x08, 0x00, 0x00, 0x00, 0x00, 0x00,
   0x13, 0x00, 0x00, 0x00, 0xc0, 0x40, 0x47, 0x40, 0x06, 0x26, 0x00, 0x00,
   0x07, 0x00, 0x00, 0x00, 0x00, 0x00, 0x00, 0x00, 0x00, 0x00, 0x40, 0x08,
   0xc0, 0x1f, 0x00, 0x00, 0x00, 0x13, 0x00, 0x00, 0xf0, 0xcf, 0x00, 0x00,
   0x00, 0x06, 0x26, 0x00, 0x00, 0x00, 0x80, 0x7f, 0x00, 0x00, 0x0e, 0x00,
   0x00, 0x00, 0x00, 0x40, 0x08, 0x78, 0xf0, 0x01, 0xc0, 0xff, 0x13, 0xe0,
   0x0f, 0x3e, 0xfc, 0xd5, 0x1f, 0x95, 0xff, 0x27, 0xc0, 0x9f, 0x0f, 0xe0,
   0xe1, 0x01, 0xf0, 0xff, 0x01, 0x00, 0x00, 0x00, 0x40, 0x08, 0x1c, 0x80,
   0x03, 0xf0, 0xff, 0x13, 0x20, 0x04, 0x07, 0xe0, 0x80, 0x18, 0xe0, 0xdf,
   0x27, 0x40, 0x88, 0x18, 0x70, 0x80, 0x03, 0x78, 0x80, 0x03, 0x00, 0x00,
   0x00, 0x40, 0x08, 0x06, 0x00, 0x06, 0x18, 0x80, 0x13, 0x30, 0xc6, 0x00,
   0x80, 0xc7, 0x58, 0x34, 0x00, 0x27, 0x60, 0x8c, 0x18, 0x18, 0x00, 0x04,
   0x0c, 0x00, 0x06, 0x00, 0x00, 0x00, 0x40, 0x08, 0xc3, 0x3f, 0x0c, 0x0c,
   0xc0, 0x13, 0x10, 0xc3, 0xf0, 0x07, 0x83, 0x18, 0x38, 0x80, 0x27, 0x20,
   0x86, 0x18, 0x0c, 0x3f, 0x0c, 0x0e, 0x1f, 0x0c, 0x00, 0x00, 0x00, 0x40,
   0x88, 0xe1, 0x79, 0x18, 0x06, 0xfe, 0x13, 0x18, 0x63, 0x78, 0x0f, 0xd6,
   0x58, 0x0d, 0xfc, 0x27, 0x30, 0x86, 0x18, 0x86, 0x7f, 0x18, 0xc3, 0x7f,
   0x18, 0x00, 0x00, 0x00, 0x40, 0x88, 0x30, 0xc0, 0x10, 0x83, 0x03, 0x13,
   0x8c, 0x31, 0x0c, 0x18, 0x86, 0x18, 0x06, 0x0b, 0x26, 0x18, 0x83, 0x18,
   0xc6, 0xc0, 0x90, 0x61, 0xc0, 0x30, 0x00, 0x00, 0x00, 0x40, 0xc8, 0x18,
   0x80, 0x21, 0xc3, 0x00, 0x13, 0x86, 0x10, 0x06, 0x30, 0xdc, 0x58, 0x87,
   0x0d, 0x26, 0x08, 0x81, 0x18, 0x66, 0xc0, 0xb0, 0x31, 0x80, 0x21, 0x00,
   0x00, 0x00, 0x40, 0x48, 0x0c, 0x00, 0x21, 0x61, 0x00, 0xf3, 0xc7, 0x18,
   0x03, 0x70, 0x8c, 0x18, 0xc3, 0x18, 0xe6, 0x8f, 0x81, 0x18, 0x22, 0x80,
   0xb0, 0x18, 0x00, 0x61, 0x00, 0x00, 0x00, 0x40, 0x48, 0x0c, 0x00, 0xa3,
   0x31, 0x00, 0xa3, 0x61, 0x18, 0x01, 0x50, 0xdc, 0xd8, 0x63, 0x1d, 0x06,
   0xc0, 0x80, 0x18, 0x22, 0x80, 0xf1, 0x0c, 0x00, 0x63, 0x00, 0x00, 0x00,
   0x40, 0x48, 0x0c, 0x00, 0xe3, 0x10, 0x00, 0x03, 0xe0, 0x18, 0x01, 0xb0,
   0xa8, 0xb8, 0x21, 0x1a, 0x06, 0xc0, 0x81, 0x18, 0x22, 0x80, 0x71, 0x0c,
   0x00, 0x62, 0x00, 0x00, 0x00, 0x40, 0x48, 0x0c, 0x00, 0xe2, 0x10, 0x00,
   0x03, 0xc0, 0x99, 0x01, 0xd0, 0xd8, 0xd8, 0x61, 0x1d, 0x06, 0x80, 0x83,
   0x18, 0x22, 0x80, 0x71, 0x0c, 0x00, 0x62, 0x00, 0x00, 0x00, 0x40, 0x48,
   0x0c, 0x00, 0xe2, 0x18, 0x00, 0x03, 0x80, 0x9b, 0x01, 0xb0, 0x88, 0x98,
   0xa1, 0x18, 0x06, 0x00, 0x86, 0x18, 0x22, 0x80, 0x71, 0x0c, 0x00, 0x62,
   0x00, 0x00, 0x00, 0x40, 0x48, 0x0c, 0x00, 0xe3, 0x10, 0x00, 0xf3, 0x0f,
   0x9b, 0x01, 0xd0, 0xd8, 0x58, 0x61, 0x1d, 0xe6, 0x1f, 0x86, 0x18, 0x22,
   0x80, 0x71, 0x0c, 0x00, 0x62, 0x00, 0x00, 0x00, 0x40, 0x48, 0x0c, 0x00,
   0xa1, 0x10, 0x00, 0x13, 0x18, 0x9a, 0x00, 0xb8, 0xac, 0xb8, 0xa3, 0x1a,
   0x26, 0x30, 0x84, 0x18, 0x22, 0x80, 0x71, 0x0c, 0x00, 0x62, 0x00, 0x00,
   0x00, 0x40, 0x48, 0x08, 0x00, 0xa1, 0x31, 0x00, 0x13, 0x30, 0x9a, 0x00,
   0x58, 0xd4, 0x58, 0x63, 0x1d, 0x26, 0x60, 0x84, 0x18, 0x22, 0x80, 0xf1,
   0x0c, 0x00, 0x62, 0x00, 0x00, 0x00, 0x40, 0xc8, 0x08, 0x80, 0x31, 0x21,
   0x00, 0x13, 0x20, 0x9a, 0x00, 0x68, 0x88, 0x98, 0xc2, 0x18, 0x26, 0x40,
   0x84, 0x18, 0x22, 0x80, 0xb1, 0x18, 0x00, 0x62, 0x00, 0x00, 0x00, 0x40,
   0x88, 0x10, 0xc0, 0x10, 0x63, 0x00, 0x13, 0x20, 0x9a, 0x06, 0x38, 0xd4,
   0x58, 0x87, 0x1d, 0x26, 0x40, 0x84, 0x18, 0x22, 0x80, 0xb1, 0x39, 0x00,
   0x62, 0x00, 0x00, 0x00, 0x40, 0x88, 0x71, 0x60, 0x18, 0xc3, 0x03, 0x13,
   0x20, 0x9a, 0x1e, 0x18, 0xaa, 0xb8, 0x06, 0x3b, 0x26, 0x40, 0x84, 0x18,
   0x22, 0x80, 0xb1, 0x61, 0xc0, 0x62, 0x00, 0x00, 0x00, 0x40, 0x08, 0xc1,
   0x3f, 0x0c, 0x06, 0xff, 0x13, 0x20, 0x9a, 0xf2, 0x0f, 0xd7, 0x58, 0x0d,
   0xfe, 0x27, 0x40, 0x84, 0x18, 0x22, 0x80, 0x31, 0xc1, 0xf3, 0x62, 0x00,
   0x00, 0x00, 0x40, 0x08, 0x03, 0x00, 0x06, 0x0c, 0x80, 0x13, 0x20, 0x9a,
   0x02, 0x00, 0xab, 0xb8, 0x1a, 0x00, 0x27, 0x40, 0x84, 0x18, 0x22, 0x80,
   0x31, 0x03, 0x9f, 0x62, 0x00, 0x00, 0x00, 0x40, 0x08, 0x0e, 0x00, 0x03,
   0x38, 0x80, 0x13, 0x20, 0x9a, 0x02, 0xc0, 0xf7, 0x78, 0x77, 0x00, 0x27,
   0x40, 0x84, 0x18, 0x22, 0x80, 0x31, 0x06, 0x80, 0x62, 0x00, 0x00, 0x00,
   0x40, 0x08, 0x38, 0x80, 0x01, 0x60, 0x80, 0x13, 0x20, 0x9a, 0x0e, 0xe0,
   0xaa, 0xb8, 0xaa, 0x01, 0x27, 0x40, 0x84, 0x18, 0x22, 0x80, 0x31, 0x1c,
   0x80, 0x62, 0x00, 0x00, 0x00, 0xc0, 0x0f, 0xe0, 0x7f, 0x00, 0x80, 0xff,
   0x1f, 0xe0, 0x9b, 0xfc, 0xff, 0xd5, 0xdf, 0xd5, 0xff, 0x3d, 0xc0, 0x87,
   0x0f, 0x3e, 0x80, 0x3f, 0xf0, 0xff, 0x62, 0x00, 0x00, 0x00, 0x00, 0x00,
   0x00, 0x0e, 0x00, 0x00, 0x00, 0x00, 0x00, 0x98, 0xe1, 0xaf, 0xaa, 0xaa,
   0xaa, 0x6a, 0x00, 0x00, 0x00, 0x00, 0x00, 0x00, 0x00, 0x80, 0x3f, 0x62,
   0x00, 0x00, 0x00, 0x00, 0x00, 0x00, 0x00, 0x00, 0x00, 0x00, 0x00, 0x00,
   0x98, 0x01, 0x7c, 0x7f, 0x7f, 0x7f, 0x7f, 0x00, 0x00, 0x07, 0x00, 0x80,
   0x03, 0x00, 0x00, 0x00, 0x62, 0x00, 0x00, 0x00, 0x00, 0x00, 0x00, 0x00,
   0x00, 0x00, 0x00, 0x00, 0x00, 0x98, 0x01, 0xac, 0xaa, 0xaa, 0xaa, 0x6a,
   0x00, 0x00, 0x07, 0x00, 0x80, 0x07, 0x00, 0x00, 0x00, 0x63, 0x00, 0x00,
   0x00, 0x00, 0x00, 0x00, 0x00, 0x00, 0x00, 0x00, 0x00, 0x00, 0x98, 0x01,
   0xdc, 0xdd, 0xdd, 0xdd, 0x7d, 0x00, 0x00, 0x07, 0x00, 0x80, 0x07, 0x00,
   0x00, 0x80, 0x21, 0x00, 0x00, 0x00, 0x00, 0x00, 0x00, 0x00, 0x00, 0x00,
   0x00, 0x00, 0x00, 0x98, 0x01, 0xac, 0xaa, 0xaa, 0xaa, 0x6a, 0x00, 0x00,
   0x07, 0x00, 0x80, 0x07, 0x00, 0x00, 0xc0, 0x11, 0x00, 0x00, 0x00, 0x00,
   0x00, 0x00, 0x00, 0x00, 0x00, 0x00, 0x00, 0x00, 0x98, 0x01, 0xfe, 0xff,
   0xff, 0xff, 0xff, 0x00, 0x00, 0x07, 0x00, 0x80, 0x07, 0x00, 0xfc, 0x7f,
   0x18, 0x00, 0x00, 0x00, 0x00, 0x00, 0x00, 0x00, 0x00, 0x00, 0x00, 0x00,
   0x00, 0x98, 0x01, 0xae, 0xaa, 0xaa, 0xaa, 0xea, 0x00, 0x00, 0x07, 0x00,
   0x80, 0x07, 0x00, 0xcc, 0x1f, 0x0c, 0x00, 0x00, 0x00, 0x00, 0x00, 0x00,
   0x00, 0x00, 0x00, 0x00, 0x00, 0x00, 0x98, 0x01, 0xfe, 0xff, 0xff, 0xff,
   0xff, 0x00, 0x00, 0x07, 0x00, 0x80, 0x07, 0x00, 0x04, 0x00, 0x06, 0x00,
   0x00, 0x00, 0x00, 0x00, 0x00, 0x00, 0x00, 0x00, 0x00, 0x00, 0x00, 0xf8,
   0x01, 0xae, 0xaa, 0xaa, 0xaa, 0xea, 0x00, 0x00, 0x87, 0x01, 0x8c, 0x87,
   0x03, 0x04, 0x80, 0x03, 0x00, 0x00, 0x00, 0x00, 0x00, 0x00, 0x00, 0x00,
   0x00, 0x00, 0x00, 0x00, 0xf8, 0x00, 0xfe, 0xff, 0xff, 0xff, 0xff, 0xc0,
   0x3f, 0xc7, 0x03, 0x9e, 0xff, 0x1f, 0xfc, 0xff, 0x01, 0x00, 0x00, 0x00,
   0x00, 0x00, 0x00, 0x00, 0x00, 0x00, 0x00, 0x00, 0x00, 0x00, 0x00, 0xba,
   0xbb, 0xbb, 0xbb, 0xfb, 0xe0, 0x3f, 0xc7, 0x03, 0x9e, 0xff, 0x3f, 0xf0,
   0x7f, 0x00, 0x00, 0x00, 0x00, 0x00, 0x00, 0x00, 0x00, 0x00, 0x00, 0x00,
   0x00, 0x00, 0x00, 0x00, 0xff, 0xff, 0xff, 0xff, 0xff, 0xf0, 0x3f, 0xc7,
   0x03, 0x9e, 0x7f, 0x7e, 0x00, 0x00, 0x00, 0x00, 0x00, 0x00, 0x00, 0x00,
   0x00, 0x00, 0x00, 0x00, 0x00, 0x00, 0x00, 0x00, 0x00, 0xef, 0xee, 0xee,
   0xee, 0xee, 0xf8, 0x01, 0xc7, 0x03, 0x9e, 0x0f, 0xfc, 0x00, 0x00, 0x00,
   0x00, 0x00, 0x00, 0x00, 0x00, 0x00, 0x00, 0x00, 0x00, 0x00, 0x00, 0x00,
   0x00, 0x00, 0xff, 0xff, 0xff, 0xff, 0xff, 0x78, 0x00, 0xc7, 0x03, 0x9e,
   0x07, 0xf8, 0x00, 0x00, 0x00, 0x00, 0x00, 0x00, 0x00, 0x00, 0x00, 0x00,
   0x00, 0x00, 0x00, 0x00, 0x00, 0x00, 0x00, 0xfb, 0xfb, 0xfb, 0xfb, 0xfb,
   0x3c, 0x00, 0xc7, 0x03, 0x9e, 0x07, 0xf0, 0x00, 0x00, 0x00, 0x00, 0x00,
   0x00, 0x00, 0x00, 0x00, 0x00, 0x00, 0x00, 0x00, 0x00, 0x00, 0x00, 0x00,
   0xff, 0xff, 0xff, 0xff, 0xff, 0x3d, 0x00, 0xc7, 0x03, 0x9e, 0x07, 0xf0,
   0x01, 0x00, 0x00, 0x00, 0x00, 0x00, 0x00, 0x00, 0x00, 0x00, 0x00, 0x00,
   0x00, 0x00, 0x00, 0x00, 0x00, 0xef, 0xee, 0xee, 0xee, 0xee, 0x3d, 0x00,
   0xc7, 0x03, 0x9e, 0x07, 0xf0, 0x01, 0x00, 0x00, 0x00, 0x00, 0x00, 0x00,
   0x00, 0x00, 0x00, 0x00, 0x00, 0x00, 0x00, 0x00, 0x00, 0x00, 0xff, 0xff,
   0xff, 0xff, 0xff, 0x3d, 0x00, 0xc7, 0x03, 0x9e, 0x07, 0xf0, 0x01, 0x00,
   0x00, 0x00, 0x00, 0x00, 0x00, 0x00, 0x00, 0x00, 0x00, 0x00, 0x00, 0x00,
   0x00, 0x00, 0x00, 0xff, 0xff, 0xff, 0xff, 0xff, 0x3d, 0x00, 0xc7, 0x03,
   0x9e, 0x07, 0xf0, 0x00, 0x00, 0x00, 0x00, 0x00, 0x00, 0x00, 0x00, 0x00,
   0x00, 0x00, 0x00, 0x00, 0x00, 0x00, 0x00, 0x00, 0xff, 0xff, 0xff, 0xff,
   0xff, 0x79, 0x00, 0xc7, 0x03, 0x9e, 0x0f, 0xf0, 0x00, 0x00, 0x00, 0x00,
   0x00, 0x00, 0x00, 0x00, 0x00, 0x00, 0x00, 0x00, 0x00, 0x00, 0x00, 0x00,
   0x00, 0xff, 0xff, 0xff, 0xff, 0xff, 0xf9, 0x00, 0x87, 0x03, 0x8f, 0x0f,
   0x78, 0x00, 0x00, 0x00, 0x00, 0x00, 0x00, 0x00, 0x00, 0x00, 0x00, 0x00,
   0x00, 0x00, 0x00, 0x00, 0x00, 0x80, 0xff, 0xff, 0xff, 0xff, 0xff, 0xf3,
   0x3f, 0x87, 0xcf, 0x0f, 0x7f, 0x7d, 0x00, 0x00, 0x00, 0x00, 0x00, 0x00,
   0x00, 0x00, 0x00, 0x00, 0x00, 0x00, 0x00, 0x00, 0x00, 0x00, 0x80, 0xff,
   0xff, 0xff, 0xff, 0xff, 0xf3, 0x3f, 0x87, 0xff, 0x07, 0xfe, 0x3f, 0x00,
   0x00, 0x00, 0x00, 0x00, 0x00, 0x00, 0x00, 0x00, 0x00, 0x00, 0x00, 0x00,
   0x00, 0x00, 0x00, 0x80, 0xff, 0xff, 0xff, 0xff, 0xff, 0xc3, 0x3f, 0x07,
   0xff, 0x03, 0xfc, 0x1f, 0x00, 0x00, 0x00, 0x00, 0x00, 0x00, 0x00, 0x00,
   0x00, 0x00, 0x00, 0x00, 0x00, 0x00, 0x00, 0x00, 0x80, 0xff, 0xff, 0xff,
   0xff, 0xff, 0x03, 0x3f, 0x07, 0xfc, 0x01, 0xf8, 0x07, 0x00, 0x00, 0x00,
   0x00, 0x00, 0x00, 0x00, 0x00, 0x00, 0x00, 0x00, 0x00, 0x00, 0x00, 0x00,
   0x00, 0x80, 0xff, 0xff, 0xff, 0xff, 0xff, 0x03, 0x00, 0x00, 0x00, 0x00,
   0x00, 0x00, 0x00, 0x00, 0x00, 0x00, 0x00, 0x00, 0x00, 0x00, 0x00, 0x00,
   0x00, 0x00, 0x00, 0x00, 0x00, 0x00, 0x00, 0x00, 0x00, 0x00, 0x00, 0x00,
   0x00, 0x00, 0x00, 0x00, 0x00, 0x00, 0x00, 0x00, 0x00, 0x00, 0x00, 0x00,
   0x00, 0x00, 0x00, 0x00, 0x00, 0x00, 0x00, 0x00, 0x00, 0x00, 0x00, 0x00,
   0x00, 0x00, 0x00, 0x00, 0x00, 0x00, 0x00, 0x00, 0x00, 0x00, 0x00, 0x00,
   0x00, 0x00, 0x00, 0x00, 0x00, 0x00, 0x00, 0x00, 0x00, 0x00, 0x00, 0x00,
   0x00, 0x00, 0x00, 0x00, 0x00, 0x00, 0x00, 0x00, 0x00, 0x00, 0x00, 0x00,
   0x00, 0x00, 0x00, 0x00, 0x00, 0x00, 0x00, 0x00, 0x00, 0x00, 0x00, 0x00,
   0x00, 0x00, 0x00, 0x00, 0x00, 0x00, 0x00, 0x00, 0x00, 0x00, 0x00, 0x00,
   0x00, 0x00, 0x00, 0x00, 0x00, 0x00, 0x00, 0x00, 0x00, 0x00, 0x00, 0x00,
   0x00, 0x00, 0x00, 0x00, 0x00, 0x00, 0x00, 0x00, 0x00, 0x00, 0x00, 0x00,
   0x00, 0x00, 0x00, 0x00, 0x00, 0x00, 0x00, 0x00, 0x00, 0x00, 0x00, 0x00,
   0x00, 0x00, 0x00, 0x00, 0x00, 0x00, 0x00, 0x00, 0x00, 0x00, 0x00, 0x00,
   0x00, 0x00, 0x00, 0x00, 0x00, 0x00, 0x00, 0x00, 0x00, 0x00, 0x00, 0x00,
   0x00, 0x00, 0x00, 0x00, 0x00, 0x00, 0x00, 0x00, 0x00, 0x00, 0x00, 0x00,
   0x00, 0x00, 0x00, 0x00, 0x00, 0x00, 0x00, 0x00, 0x00, 0x00, 0x00, 0x00,
   0x00, 0x00, 0x00, 0x00, 0x00, 0x00, 0x00, 0x00, 0x00, 0x00, 0x00, 0x00,
   0x00, 0x00, 0x00, 0x00 };
