#define ascii0x76_width 11
#define ascii0x76_height 22
static unsigned char ascii0x76_bits[] = {
   0x00, 0x00, 0x00, 0x00, 0x00, 0x00, 0x00, 0x00, 0x00, 0x00, 0x00, 0x00,
   0x00, 0x00, 0x00, 0x00, 0x06, 0x03, 0x8c, 0x01, 0x8c, 0x01, 0x8c, 0x01,
   0x98, 0x00, 0xd8, 0x00, 0xd8, 0x00, 0x70, 0x00, 0x70, 0x00, 0x20, 0x00,
   0x00, 0x00, 0x00, 0x00, 0x00, 0x00, 0x00, 0x00 };
