#define ascii0x50_width 11
#define ascii0x50_height 22
static unsigned char ascii0x50_bits[] = {
   0x00, 0x00, 0x00, 0x00, 0x00, 0x00, 0x00, 0x00, 0x00, 0x00, 0xfc, 0x00,
   0xfc, 0x01, 0x8c, 0x03, 0x0c, 0x03, 0x0c, 0x03, 0x8c, 0x03, 0xfc, 0x01,
   0xfc, 0x00, 0x0c, 0x00, 0x0c, 0x00, 0x0c, 0x00, 0x0c, 0x00, 0x0c, 0x00,
   0x00, 0x00, 0x00, 0x00, 0x00, 0x00, 0x00, 0x00 };
