#define ascii0x49_width 8
#define ascii0x49_height 22
static unsigned char ascii0x49_bits[] = {
   0x00, 0x00, 0x00, 0x00, 0x00, 0x7e, 0x7e, 0x18, 0x18, 0x18, 0x18, 0x18,
   0x18, 0x18, 0x18, 0x18, 0x7e, 0x7e, 0x00, 0x00, 0x00, 0x00 };
