#define ascii0x6b_width 11
#define ascii0x6b_height 22
static unsigned char ascii0x6b_bits[] = {
   0x00, 0x00, 0x00, 0x00, 0x00, 0x00, 0x00, 0x00, 0x06, 0x00, 0x06, 0x00,
   0x06, 0x00, 0x06, 0x00, 0x06, 0x03, 0x86, 0x01, 0xc6, 0x00, 0x66, 0x00,
   0x36, 0x00, 0x7e, 0x00, 0xe6, 0x00, 0xc6, 0x01, 0x86, 0x03, 0x06, 0x07,
   0x00, 0x00, 0x00, 0x00, 0x00, 0x00, 0x00, 0x00 };
