#define ascii0x35_width 11
#define ascii0x35_height 22
static unsigned char ascii0x35_bits[] = {
   0x00, 0x00, 0x00, 0x00, 0x00, 0x00, 0x00, 0x00, 0x00, 0x00, 0xf8, 0x03,
   0xf8, 0x03, 0x18, 0x00, 0x18, 0x00, 0x18, 0x00, 0xf8, 0x00, 0xf8, 0x01,
   0x80, 0x03, 0x00, 0x03, 0x00, 0x03, 0x84, 0x03, 0xfc, 0x01, 0xf8, 0x00,
   0x00, 0x00, 0x00, 0x00, 0x00, 0x00, 0x00, 0x00 };
