#define ascii0x42_width 12
#define ascii0x42_height 22
static unsigned char ascii0x42_bits[] = {
   0x00, 0x00, 0x00, 0x00, 0x00, 0x00, 0x00, 0x00, 0x00, 0x00, 0xfc, 0x01,
   0xfc, 0x03, 0x0c, 0x03, 0x0c, 0x03, 0x8c, 0x01, 0xfc, 0x01, 0xfc, 0x03,
   0x0c, 0x07, 0x0c, 0x06, 0x0c, 0x06, 0x0c, 0x07, 0xfc, 0x03, 0xfc, 0x01,
   0x00, 0x00, 0x00, 0x00, 0x00, 0x00, 0x00, 0x00 };
