#define ascii0x66_width 6
#define ascii0x66_height 22
static unsigned char ascii0x66_bits[] = {
   0x00, 0x00, 0x00, 0x00, 0x3c, 0x3c, 0x06, 0x06, 0x1f, 0x1f, 0x06, 0x06,
   0x06, 0x06, 0x06, 0x06, 0x06, 0x06, 0x00, 0x00, 0x00, 0x00 };
