#define ascii0x67_width 11
#define ascii0x67_height 22
static unsigned char ascii0x67_bits[] = {
   0x00, 0x00, 0x00, 0x00, 0x00, 0x00, 0x00, 0x00, 0x00, 0x00, 0x00, 0x00,
   0x00, 0x00, 0x00, 0x00, 0xfc, 0x01, 0xfe, 0x01, 0x86, 0x01, 0x83, 0x01,
   0x83, 0x01, 0x83, 0x01, 0x83, 0x01, 0xc7, 0x01, 0xfe, 0x01, 0xbc, 0x01,
   0x80, 0x01, 0xc0, 0x01, 0xfe, 0x00, 0x7e, 0x00 };
