#define ascii0x7b_width 11
#define ascii0x7b_height 22
static unsigned char ascii0x7b_bits[] = {
   0x00, 0x00, 0x00, 0x00, 0x00, 0x00, 0x00, 0x00, 0x80, 0x03, 0xc0, 0x00,
   0x60, 0x00, 0x60, 0x00, 0x60, 0x00, 0x60, 0x00, 0x60, 0x00, 0x30, 0x00,
   0x1c, 0x00, 0x30, 0x00, 0x60, 0x00, 0x60, 0x00, 0x60, 0x00, 0x60, 0x00,
   0x60, 0x00, 0xc0, 0x00, 0x80, 0x03, 0x00, 0x00 };
