#define ascii0x51_width 14
#define ascii0x51_height 22
static unsigned char ascii0x51_bits[] = {
   0x00, 0x00, 0x00, 0x00, 0x00, 0x00, 0x00, 0x00, 0x00, 0x00, 0xf0, 0x03,
   0xf8, 0x07, 0x1c, 0x0e, 0x0c, 0x0c, 0x06, 0x18, 0x06, 0x18, 0x06, 0x18,
   0x06, 0x18, 0x06, 0x18, 0x0c, 0x0c, 0x1c, 0x0e, 0xf8, 0x07, 0xf0, 0x03,
   0x00, 0x03, 0x00, 0x1f, 0x00, 0x1e, 0x00, 0x00 };
