#define ascii0x22_width 8
#define ascii0x22_height 22
static unsigned char ascii0x22_bits[] = {
   0x00, 0x00, 0x00, 0x00, 0x36, 0x36, 0x36, 0x36, 0x36, 0x00, 0x00, 0x00,
   0x00, 0x00, 0x00, 0x00, 0x00, 0x00, 0x00, 0x00, 0x00, 0x00 };
