#define ascii0x2a_width 11
#define ascii0x2a_height 22
static unsigned char ascii0x2a_bits[] = {
   0x00, 0x00, 0x00, 0x00, 0x00, 0x00, 0x00, 0x00, 0x20, 0x00, 0x22, 0x02,
   0xac, 0x01, 0x70, 0x00, 0x70, 0x00, 0xac, 0x01, 0x22, 0x02, 0x20, 0x00,
   0x00, 0x00, 0x00, 0x00, 0x00, 0x00, 0x00, 0x00, 0x00, 0x00, 0x00, 0x00,
   0x00, 0x00, 0x00, 0x00, 0x00, 0x00, 0x00, 0x00 };
