#define ascii0x36_width 11
#define ascii0x36_height 22
static unsigned char ascii0x36_bits[] = {
   0x00, 0x00, 0x00, 0x00, 0x00, 0x00, 0x00, 0x00, 0x00, 0x00, 0xe0, 0x01,
   0xf8, 0x01, 0x1c, 0x00, 0x0c, 0x00, 0x06, 0x00, 0xf6, 0x00, 0xfe, 0x01,
   0x86, 0x03, 0x06, 0x03, 0x06, 0x03, 0x8c, 0x03, 0xfc, 0x01, 0xf8, 0x00,
   0x00, 0x00, 0x00, 0x00, 0x00, 0x00, 0x00, 0x00 };
