#define ascii0x32_width 11
#define ascii0x32_height 22
static unsigned char ascii0x32_bits[] = {
   0x00, 0x00, 0x00, 0x00, 0x00, 0x00, 0x00, 0x00, 0x00, 0x00, 0x7c, 0x00,
   0xfe, 0x00, 0xc2, 0x01, 0x80, 0x01, 0x80, 0x01, 0xc0, 0x00, 0xc0, 0x00,
   0x60, 0x00, 0x30, 0x00, 0x1c, 0x00, 0x06, 0x00, 0xfe, 0x03, 0xfe, 0x03,
   0x00, 0x00, 0x00, 0x00, 0x00, 0x00, 0x00, 0x00 };
