#define ascii0x63_width 9
#define ascii0x63_height 22
static unsigned char ascii0x63_bits[] = {
   0x00, 0x00, 0x00, 0x00, 0x00, 0x00, 0x00, 0x00, 0x00, 0x00, 0x00, 0x00,
   0x00, 0x00, 0x00, 0x00, 0x78, 0x00, 0xfe, 0x00, 0x86, 0x00, 0x03, 0x00,
   0x03, 0x00, 0x03, 0x00, 0x03, 0x00, 0x87, 0x00, 0xfe, 0x00, 0x7c, 0x00,
   0x00, 0x00, 0x00, 0x00, 0x00, 0x00, 0x00, 0x00 };
