#define ascii0x74_width 7
#define ascii0x74_height 22
static unsigned char ascii0x74_bits[] = {
   0x00, 0x00, 0x00, 0x00, 0x00, 0x06, 0x06, 0x06, 0x7f, 0x7f, 0x06, 0x06,
   0x06, 0x06, 0x06, 0x0e, 0x7e, 0x7c, 0x00, 0x00, 0x00, 0x00 };
