#define ascii0x7a_width 9
#define ascii0x7a_height 22
static unsigned char ascii0x7a_bits[] = {
   0x00, 0x00, 0x00, 0x00, 0x00, 0x00, 0x00, 0x00, 0x00, 0x00, 0x00, 0x00,
   0x00, 0x00, 0x00, 0x00, 0xfe, 0x00, 0xfe, 0x00, 0xc0, 0x00, 0x60, 0x00,
   0x30, 0x00, 0x18, 0x00, 0x0c, 0x00, 0x06, 0x00, 0xfe, 0x00, 0xfe, 0x00,
   0x00, 0x00, 0x00, 0x00, 0x00, 0x00, 0x00, 0x00 };
