#define ascii0x58_width 12
#define ascii0x58_height 22
static unsigned char ascii0x58_bits[] = {
   0x00, 0x00, 0x00, 0x00, 0x00, 0x00, 0x00, 0x00, 0x00, 0x00, 0x0e, 0x07,
   0x0c, 0x03, 0x98, 0x01, 0x98, 0x01, 0xf0, 0x00, 0xf0, 0x00, 0x60, 0x00,
   0xf0, 0x00, 0xf0, 0x00, 0x98, 0x01, 0x98, 0x01, 0x0c, 0x03, 0x0e, 0x07,
   0x00, 0x00, 0x00, 0x00, 0x00, 0x00, 0x00, 0x00 };
