#define ascii0x39_width 11
#define ascii0x39_height 22
static unsigned char ascii0x39_bits[] = {
   0x00, 0x00, 0x00, 0x00, 0x00, 0x00, 0x00, 0x00, 0x00, 0x00, 0xf8, 0x00,
   0xfc, 0x01, 0x8e, 0x01, 0x06, 0x03, 0x06, 0x03, 0x0e, 0x03, 0xfc, 0x03,
   0xf8, 0x03, 0x00, 0x03, 0x80, 0x01, 0xc0, 0x01, 0xfc, 0x00, 0x3c, 0x00,
   0x00, 0x00, 0x00, 0x00, 0x00, 0x00, 0x00, 0x00 };
