#define ascii0x64_width 11
#define ascii0x64_height 22
static unsigned char ascii0x64_bits[] = {
   0x00, 0x00, 0x00, 0x00, 0x00, 0x00, 0x00, 0x00, 0x80, 0x01, 0x80, 0x01,
   0x80, 0x01, 0x80, 0x01, 0xfc, 0x01, 0xfe, 0x01, 0x86, 0x01, 0x83, 0x01,
   0x83, 0x01, 0x83, 0x01, 0x83, 0x01, 0xc7, 0x01, 0xfe, 0x01, 0xbc, 0x01,
   0x00, 0x00, 0x00, 0x00, 0x00, 0x00, 0x00, 0x00 };
