#define ascii0x47_width 14
#define ascii0x47_height 22
static unsigned char ascii0x47_bits[] = {
   0x00, 0x00, 0x00, 0x00, 0x00, 0x00, 0x00, 0x00, 0x00, 0x00, 0xe0, 0x07,
   0xf8, 0x1f, 0x1c, 0x18, 0x0c, 0x00, 0x06, 0x00, 0x06, 0x00, 0x06, 0x1f,
   0x06, 0x1f, 0x06, 0x18, 0x0c, 0x18, 0x1c, 0x18, 0xf8, 0x1f, 0xe0, 0x07,
   0x00, 0x00, 0x00, 0x00, 0x00, 0x00, 0x00, 0x00 };
