#define ascii0x6c_width 5
#define ascii0x6c_height 22
static unsigned char ascii0x6c_bits[] = {
   0x00, 0x00, 0x00, 0x00, 0x06, 0x06, 0x06, 0x06, 0x06, 0x06, 0x06, 0x06,
   0x06, 0x06, 0x06, 0x06, 0x06, 0x06, 0x00, 0x00, 0x00, 0x00 };
