#define ascii0x4e_width 13
#define ascii0x4e_height 22
static unsigned char ascii0x4e_bits[] = {
   0x00, 0x00, 0x00, 0x00, 0x00, 0x00, 0x00, 0x00, 0x00, 0x00, 0x1c, 0x06,
   0x1c, 0x06, 0x3c, 0x06, 0x2c, 0x06, 0x6c, 0x06, 0x4c, 0x06, 0x4c, 0x06,
   0xcc, 0x06, 0x8c, 0x06, 0x8c, 0x07, 0x0c, 0x07, 0x0c, 0x07, 0x0c, 0x07,
   0x00, 0x00, 0x00, 0x00, 0x00, 0x00, 0x00, 0x00 };
