#define ascii0x6d_width 18
#define ascii0x6d_height 22
static unsigned char ascii0x6d_bits[] = {
   0x00, 0x00, 0x00, 0x00, 0x00, 0x00, 0x00, 0x00, 0x00, 0x00, 0x00, 0x00,
   0x00, 0x00, 0x00, 0x00, 0x00, 0x00, 0x00, 0x00, 0x00, 0x00, 0x00, 0x00,
   0xec, 0x79, 0x00, 0xfc, 0xff, 0x00, 0x1c, 0xe7, 0x00, 0x0c, 0xc3, 0x00,
   0x0c, 0xc3, 0x00, 0x0c, 0xc3, 0x00, 0x0c, 0xc3, 0x00, 0x0c, 0xc3, 0x00,
   0x0c, 0xc3, 0x00, 0x0c, 0xc3, 0x00, 0x00, 0x00, 0x00, 0x00, 0x00, 0x00,
   0x00, 0x00, 0x00, 0x00, 0x00, 0x00 };
