#define ascii0x65_width 11
#define ascii0x65_height 22
static unsigned char ascii0x65_bits[] = {
   0x00, 0x00, 0x00, 0x00, 0x00, 0x00, 0x00, 0x00, 0x00, 0x00, 0x00, 0x00,
   0x00, 0x00, 0x00, 0x00, 0xf8, 0x00, 0xfe, 0x01, 0x86, 0x03, 0x03, 0x03,
   0xff, 0x03, 0xff, 0x03, 0x03, 0x00, 0x06, 0x02, 0xfe, 0x03, 0xf8, 0x01,
   0x00, 0x00, 0x00, 0x00, 0x00, 0x00, 0x00, 0x00 };
