#define ascii0x29_width 8
#define ascii0x29_height 22
static unsigned char ascii0x29_bits[] = {
   0x00, 0x00, 0x00, 0x00, 0x06, 0x0c, 0x08, 0x18, 0x18, 0x30, 0x30, 0x30,
   0x30, 0x30, 0x30, 0x30, 0x30, 0x18, 0x18, 0x0c, 0x0c, 0x06 };
