#define ascii0x5c_width 9
#define ascii0x5c_height 22
static unsigned char ascii0x5c_bits[] = {
   0x00, 0x00, 0x00, 0x00, 0x00, 0x00, 0x00, 0x00, 0x06, 0x00, 0x0c, 0x00,
   0x0c, 0x00, 0x0c, 0x00, 0x18, 0x00, 0x18, 0x00, 0x18, 0x00, 0x30, 0x00,
   0x30, 0x00, 0x30, 0x00, 0x60, 0x00, 0x60, 0x00, 0x60, 0x00, 0xc0, 0x00,
   0xc0, 0x00, 0xc0, 0x00, 0x80, 0x01, 0x00, 0x00 };
