#define ascii0x3e_width 15
#define ascii0x3e_height 22
static unsigned char ascii0x3e_bits[] = {
   0x00, 0x00, 0x00, 0x00, 0x00, 0x00, 0x00, 0x00, 0x00, 0x00, 0x00, 0x00,
   0x00, 0x00, 0x0c, 0x00, 0x3c, 0x00, 0xf0, 0x00, 0xc0, 0x03, 0x00, 0x0f,
   0x00, 0x0f, 0xc0, 0x03, 0xf0, 0x00, 0x3c, 0x00, 0x0c, 0x00, 0x00, 0x00,
   0x00, 0x00, 0x00, 0x00, 0x00, 0x00, 0x00, 0x00 };
