#define ascii0x5d_width 8
#define ascii0x5d_height 22
static unsigned char ascii0x5d_bits[] = {
   0x00, 0x00, 0x00, 0x00, 0x7c, 0x60, 0x60, 0x60, 0x60, 0x60, 0x60, 0x60,
   0x60, 0x60, 0x60, 0x60, 0x60, 0x60, 0x60, 0x60, 0x7c, 0x00 };
