#define ascii0x3f_width 10
#define ascii0x3f_height 22
static unsigned char ascii0x3f_bits[] = {
   0x00, 0x00, 0x00, 0x00, 0x00, 0x00, 0x00, 0x00, 0x00, 0x00, 0x3c, 0x00,
   0x7e, 0x00, 0xe2, 0x00, 0xc0, 0x00, 0xc0, 0x00, 0x60, 0x00, 0x30, 0x00,
   0x18, 0x00, 0x18, 0x00, 0x00, 0x00, 0x00, 0x00, 0x18, 0x00, 0x18, 0x00,
   0x00, 0x00, 0x00, 0x00, 0x00, 0x00, 0x00, 0x00 };
