#define ascii0x53_width 12
#define ascii0x53_height 22
static unsigned char ascii0x53_bits[] = {
   0x00, 0x00, 0x00, 0x00, 0x00, 0x00, 0x00, 0x00, 0x00, 0x00, 0xf8, 0x01,
   0xfc, 0x03, 0x0e, 0x02, 0x06, 0x00, 0x06, 0x00, 0x3c, 0x00, 0xf8, 0x01,
   0x80, 0x07, 0x00, 0x06, 0x00, 0x06, 0x02, 0x07, 0xfe, 0x03, 0xfc, 0x01,
   0x00, 0x00, 0x00, 0x00, 0x00, 0x00, 0x00, 0x00 };
