#define ascii0x45_width 11
#define ascii0x45_height 22
static unsigned char ascii0x45_bits[] = {
   0x00, 0x00, 0x00, 0x00, 0x00, 0x00, 0x00, 0x00, 0x00, 0x00, 0xfc, 0x03,
   0xfc, 0x03, 0x0c, 0x00, 0x0c, 0x00, 0x0c, 0x00, 0xfc, 0x03, 0xfc, 0x03,
   0x0c, 0x00, 0x0c, 0x00, 0x0c, 0x00, 0x0c, 0x00, 0xfc, 0x03, 0xfc, 0x03,
   0x00, 0x00, 0x00, 0x00, 0x00, 0x00, 0x00, 0x00 };
