#define ascii0x72_width 8
#define ascii0x72_height 22
static unsigned char ascii0x72_bits[] = {
   0x00, 0x00, 0x00, 0x00, 0x00, 0x00, 0x00, 0x00, 0xe6, 0xfe, 0x0e, 0x06,
   0x06, 0x06, 0x06, 0x06, 0x06, 0x06, 0x00, 0x00, 0x00, 0x00 };
