#define ascii0x3b_width 8
#define ascii0x3b_height 22
static unsigned char ascii0x3b_bits[] = {
   0x00, 0x00, 0x00, 0x00, 0x00, 0x00, 0x00, 0x00, 0x18, 0x18, 0x18, 0x00,
   0x00, 0x00, 0x00, 0x38, 0x18, 0x18, 0x08, 0x0c, 0x0c, 0x00 };
