#define ascii0x33_width 11
#define ascii0x33_height 22
static unsigned char ascii0x33_bits[] = {
   0x00, 0x00, 0x00, 0x00, 0x00, 0x00, 0x00, 0x00, 0x00, 0x00, 0xfc, 0x00,
   0xfe, 0x01, 0x82, 0x03, 0x00, 0x03, 0x80, 0x01, 0xf0, 0x00, 0xf0, 0x01,
   0x80, 0x03, 0x00, 0x03, 0x00, 0x03, 0x82, 0x03, 0xfe, 0x01, 0xfc, 0x00,
   0x00, 0x00, 0x00, 0x00, 0x00, 0x00, 0x00, 0x00 };
