#define ascii0x79_width 11
#define ascii0x79_height 22
static unsigned char ascii0x79_bits[] = {
   0x00, 0x00, 0x00, 0x00, 0x00, 0x00, 0x00, 0x00, 0x00, 0x00, 0x00, 0x00,
   0x00, 0x00, 0x00, 0x00, 0x06, 0x03, 0x8c, 0x01, 0x8c, 0x01, 0x8c, 0x01,
   0xd8, 0x00, 0xd8, 0x00, 0x78, 0x00, 0x70, 0x00, 0x70, 0x00, 0x20, 0x00,
   0x30, 0x00, 0x30, 0x00, 0x18, 0x00, 0x18, 0x00 };
