#define ascii0x57_width 18
#define ascii0x57_height 22
static unsigned char ascii0x57_bits[] = {
   0x00, 0x00, 0x00, 0x00, 0x00, 0x00, 0x00, 0x00, 0x00, 0x00, 0x00, 0x00,
   0x00, 0x00, 0x00, 0x06, 0x83, 0x01, 0x06, 0x83, 0x01, 0x0c, 0xc7, 0x00,
   0x8c, 0xc7, 0x00, 0x8c, 0xc4, 0x00, 0x8c, 0xc4, 0x00, 0x98, 0x4c, 0x00,
   0xd8, 0x6c, 0x00, 0x58, 0x68, 0x00, 0x58, 0x68, 0x00, 0x70, 0x38, 0x00,
   0x70, 0x38, 0x00, 0x30, 0x30, 0x00, 0x00, 0x00, 0x00, 0x00, 0x00, 0x00,
   0x00, 0x00, 0x00, 0x00, 0x00, 0x00 };
