#define ascii0x7c_width 8
#define ascii0x7c_height 22
static unsigned char ascii0x7c_bits[] = {
   0x00, 0x00, 0x00, 0x00, 0x18, 0x18, 0x18, 0x18, 0x18, 0x18, 0x18, 0x18,
   0x18, 0x18, 0x18, 0x18, 0x18, 0x18, 0x18, 0x18, 0x18, 0x00 };
