#define ascii0x59_width 12
#define ascii0x59_height 22
static unsigned char ascii0x59_bits[] = {
   0x00, 0x00, 0x00, 0x00, 0x00, 0x00, 0x00, 0x00, 0x00, 0x00, 0x07, 0x0e,
   0x06, 0x06, 0x0c, 0x03, 0x9c, 0x03, 0x98, 0x01, 0xf0, 0x00, 0xf0, 0x00,
   0x60, 0x00, 0x60, 0x00, 0x60, 0x00, 0x60, 0x00, 0x60, 0x00, 0x60, 0x00,
   0x00, 0x00, 0x00, 0x00, 0x00, 0x00, 0x00, 0x00 };
