#define ascii0x73_width 9
#define ascii0x73_height 22
static unsigned char ascii0x73_bits[] = {
   0x00, 0x00, 0x00, 0x00, 0x00, 0x00, 0x00, 0x00, 0x00, 0x00, 0x00, 0x00,
   0x00, 0x00, 0x00, 0x00, 0x7e, 0x00, 0xff, 0x00, 0x83, 0x00, 0x03, 0x00,
   0x3e, 0x00, 0x78, 0x00, 0xc0, 0x00, 0xc1, 0x00, 0xff, 0x00, 0x7e, 0x00,
   0x00, 0x00, 0x00, 0x00, 0x00, 0x00, 0x00, 0x00 };
