#define ascii0x52_width 13
#define ascii0x52_height 22
static unsigned char ascii0x52_bits[] = {
   0x00, 0x00, 0x00, 0x00, 0x00, 0x00, 0x00, 0x00, 0x00, 0x00, 0xfc, 0x01,
   0xfc, 0x03, 0x0c, 0x07, 0x0c, 0x06, 0x0c, 0x06, 0x0c, 0x07, 0xfc, 0x03,
   0xfc, 0x00, 0x8c, 0x01, 0x8c, 0x03, 0x0c, 0x07, 0x0c, 0x0e, 0x0c, 0x1c,
   0x00, 0x00, 0x00, 0x00, 0x00, 0x00, 0x00, 0x00 };
