#define ascii0x44_width 14
#define ascii0x44_height 22
static unsigned char ascii0x44_bits[] = {
   0x00, 0x00, 0x00, 0x00, 0x00, 0x00, 0x00, 0x00, 0x00, 0x00, 0xfc, 0x01,
   0xfc, 0x07, 0x0c, 0x0f, 0x0c, 0x0c, 0x0c, 0x18, 0x0c, 0x18, 0x0c, 0x18,
   0x0c, 0x18, 0x0c, 0x18, 0x0c, 0x0c, 0x0c, 0x0e, 0xfc, 0x07, 0xfc, 0x01,
   0x00, 0x00, 0x00, 0x00, 0x00, 0x00, 0x00, 0x00 };
