#define ascii0x26_width 13
#define ascii0x26_height 22
static unsigned char ascii0x26_bits[] = {
   0x00, 0x00, 0x00, 0x00, 0x00, 0x00, 0x00, 0x00, 0x00, 0x00, 0x78, 0x00,
   0xfc, 0x00, 0xcc, 0x00, 0xcc, 0x00, 0x4c, 0x00, 0x38, 0x06, 0x6c, 0x06,
   0xc4, 0x06, 0x86, 0x07, 0x06, 0x03, 0x8e, 0x07, 0xfc, 0x0d, 0x78, 0x18,
   0x00, 0x00, 0x00, 0x00, 0x00, 0x00, 0x00, 0x00 };
