#define ascii0x24_width 11
#define ascii0x24_height 22
static unsigned char ascii0x24_bits[] = {
   0x00, 0x00, 0x00, 0x00, 0x00, 0x00, 0x00, 0x00, 0x00, 0x00, 0x20, 0x00,
   0x20, 0x00, 0xf8, 0x03, 0xfc, 0x03, 0x26, 0x00, 0x26, 0x00, 0x2e, 0x00,
   0xf8, 0x00, 0xa0, 0x03, 0x20, 0x03, 0x22, 0x03, 0xfe, 0x01, 0xfc, 0x00,
   0x20, 0x00, 0x20, 0x00, 0x20, 0x00, 0x00, 0x00 };
