#define ascii0x4a_width 8
#define ascii0x4a_height 22
static unsigned char ascii0x4a_bits[] = {
   0x00, 0x00, 0x00, 0x00, 0x00, 0x3e, 0x3e, 0x30, 0x30, 0x30, 0x30, 0x30,
   0x30, 0x30, 0x30, 0x38, 0x1f, 0x0f, 0x00, 0x00, 0x00, 0x00 };
