#define ascii0x34_width 11
#define ascii0x34_height 22
static unsigned char ascii0x34_bits[] = {
   0x00, 0x00, 0x00, 0x00, 0x00, 0x00, 0x00, 0x00, 0x00, 0x00, 0x80, 0x01,
   0xc0, 0x01, 0xe0, 0x01, 0xf0, 0x01, 0xb8, 0x01, 0x9c, 0x01, 0x8e, 0x01,
   0xfe, 0x07, 0xfe, 0x07, 0x80, 0x01, 0x80, 0x01, 0x80, 0x01, 0x80, 0x01,
   0x00, 0x00, 0x00, 0x00, 0x00, 0x00, 0x00, 0x00 };
