#define ascii0x21_width 7
#define ascii0x21_height 22
static unsigned char ascii0x21_bits[] = {
   0x00, 0x00, 0x00, 0x00, 0x00, 0x18, 0x18, 0x18, 0x18, 0x18, 0x18, 0x18,
   0x18, 0x18, 0x00, 0x00, 0x18, 0x18, 0x00, 0x00, 0x00, 0x00 };
