#define ascii0x43_width 13
#define ascii0x43_height 22
static unsigned char ascii0x43_bits[] = {
   0x00, 0x00, 0x00, 0x00, 0x00, 0x00, 0x00, 0x00, 0x00, 0x00, 0xe0, 0x07,
   0xf8, 0x0f, 0x1c, 0x08, 0x0c, 0x00, 0x06, 0x00, 0x06, 0x00, 0x06, 0x00,
   0x06, 0x00, 0x06, 0x00, 0x0c, 0x00, 0x1c, 0x08, 0xf8, 0x0f, 0xe0, 0x03,
   0x00, 0x00, 0x00, 0x00, 0x00, 0x00, 0x00, 0x00 };
