#define ascii0x28_width 8
#define ascii0x28_height 22
static unsigned char ascii0x28_bits[] = {
   0x00, 0x00, 0x00, 0x00, 0x30, 0x18, 0x08, 0x0c, 0x0c, 0x06, 0x06, 0x06,
   0x06, 0x06, 0x06, 0x06, 0x06, 0x0c, 0x0c, 0x08, 0x18, 0x30 };
