#define ascii0x55_width 13
#define ascii0x55_height 22
static unsigned char ascii0x55_bits[] = {
   0x00, 0x00, 0x00, 0x00, 0x00, 0x00, 0x00, 0x00, 0x00, 0x00, 0x0c, 0x06,
   0x0c, 0x06, 0x0c, 0x06, 0x0c, 0x06, 0x0c, 0x06, 0x0c, 0x06, 0x0c, 0x06,
   0x0c, 0x06, 0x0c, 0x06, 0x0c, 0x06, 0x1c, 0x07, 0xf8, 0x03, 0xf0, 0x01,
   0x00, 0x00, 0x00, 0x00, 0x00, 0x00, 0x00, 0x00 };
