#define ascii0x5b_width 8
#define ascii0x5b_height 22
static unsigned char ascii0x5b_bits[] = {
   0x00, 0x00, 0x00, 0x00, 0x7c, 0x0c, 0x0c, 0x0c, 0x0c, 0x0c, 0x0c, 0x0c,
   0x0c, 0x0c, 0x0c, 0x0c, 0x0c, 0x0c, 0x0c, 0x0c, 0x7c, 0x00 };
