#define ascii0x5a_width 12
#define ascii0x5a_height 22
static unsigned char ascii0x5a_bits[] = {
   0x00, 0x00, 0x00, 0x00, 0x00, 0x00, 0x00, 0x00, 0x00, 0x00, 0xfe, 0x07,
   0xfe, 0x07, 0x00, 0x07, 0x80, 0x03, 0xc0, 0x01, 0xc0, 0x00, 0x60, 0x00,
   0x30, 0x00, 0x38, 0x00, 0x1c, 0x00, 0x0e, 0x00, 0xfe, 0x07, 0xfe, 0x07,
   0x00, 0x00, 0x00, 0x00, 0x00, 0x00, 0x00, 0x00 };
