#define ascii0x37_width 11
#define ascii0x37_height 22
static unsigned char ascii0x37_bits[] = {
   0x00, 0x00, 0x00, 0x00, 0x00, 0x00, 0x00, 0x00, 0x00, 0x00, 0xfe, 0x03,
   0xfe, 0x03, 0x00, 0x03, 0x80, 0x01, 0xc0, 0x01, 0xc0, 0x00, 0xe0, 0x00,
   0x60, 0x00, 0x70, 0x00, 0x30, 0x00, 0x38, 0x00, 0x18, 0x00, 0x1c, 0x00,
   0x00, 0x00, 0x00, 0x00, 0x00, 0x00, 0x00, 0x00 };
