#define ascii0x68_width 11
#define ascii0x68_height 22
static unsigned char ascii0x68_bits[] = {
   0x00, 0x00, 0x00, 0x00, 0x00, 0x00, 0x00, 0x00, 0x06, 0x00, 0x06, 0x00,
   0x06, 0x00, 0x06, 0x00, 0xf6, 0x00, 0xfe, 0x01, 0xce, 0x01, 0x86, 0x01,
   0x86, 0x01, 0x86, 0x01, 0x86, 0x01, 0x86, 0x01, 0x86, 0x01, 0x86, 0x01,
   0x00, 0x00, 0x00, 0x00, 0x00, 0x00, 0x00, 0x00 };
