#define ascii0x31_width 11
#define ascii0x31_height 22
static unsigned char ascii0x31_bits[] = {
   0x00, 0x00, 0x00, 0x00, 0x00, 0x00, 0x00, 0x00, 0x00, 0x00, 0x60, 0x00,
   0x70, 0x00, 0x7c, 0x00, 0x7c, 0x00, 0x60, 0x00, 0x60, 0x00, 0x60, 0x00,
   0x60, 0x00, 0x60, 0x00, 0x60, 0x00, 0x60, 0x00, 0xfc, 0x03, 0xfc, 0x03,
   0x00, 0x00, 0x00, 0x00, 0x00, 0x00, 0x00, 0x00 };
