#define ascii0x25_width 19
#define ascii0x25_height 22
static unsigned char ascii0x25_bits[] = {
   0x00, 0x00, 0x00, 0x00, 0x00, 0x00, 0x00, 0x00, 0x00, 0x00, 0x00, 0x00,
   0x00, 0x00, 0x00, 0x3c, 0x30, 0x00, 0x26, 0x10, 0x00, 0x66, 0x18, 0x00,
   0x66, 0x0c, 0x00, 0x66, 0x04, 0x00, 0x66, 0xe6, 0x01, 0x66, 0x32, 0x03,
   0x3c, 0x33, 0x03, 0x00, 0x31, 0x03, 0x80, 0x31, 0x03, 0xc0, 0x30, 0x03,
   0x40, 0x20, 0x03, 0x60, 0xe0, 0x01, 0x00, 0x00, 0x00, 0x00, 0x00, 0x00,
   0x00, 0x00, 0x00, 0x00, 0x00, 0x00 };
