#define ascii0x23_width 15
#define ascii0x23_height 22
static unsigned char ascii0x23_bits[] = {
   0x00, 0x00, 0x00, 0x00, 0x00, 0x00, 0x00, 0x00, 0x00, 0x00, 0x80, 0x04,
   0x80, 0x04, 0x40, 0x02, 0x40, 0x02, 0xf8, 0x1f, 0x40, 0x02, 0x60, 0x03,
   0x20, 0x01, 0xfc, 0x0f, 0x20, 0x01, 0x20, 0x01, 0x90, 0x00, 0x90, 0x00,
   0x00, 0x00, 0x00, 0x00, 0x00, 0x00, 0x00, 0x00 };
