#define ascii0x77_width 15
#define ascii0x77_height 22
static unsigned char ascii0x77_bits[] = {
   0x00, 0x00, 0x00, 0x00, 0x00, 0x00, 0x00, 0x00, 0x00, 0x00, 0x00, 0x00,
   0x00, 0x00, 0x00, 0x00, 0x86, 0x30, 0xc6, 0x31, 0xcc, 0x11, 0x4c, 0x19,
   0x6c, 0x1b, 0x2c, 0x1a, 0x28, 0x0a, 0x38, 0x0e, 0x38, 0x0e, 0x18, 0x0c,
   0x00, 0x00, 0x00, 0x00, 0x00, 0x00, 0x00, 0x00 };
