#define ascii0x40_width 18
#define ascii0x40_height 22
static unsigned char ascii0x40_bits[] = {
   0x00, 0x00, 0x00, 0x00, 0x00, 0x00, 0x00, 0x00, 0x00, 0x00, 0x00, 0x00,
   0x00, 0x00, 0x00, 0x80, 0x1f, 0x00, 0x60, 0x30, 0x00, 0x30, 0x60, 0x00,
   0x18, 0xdf, 0x00, 0x98, 0x99, 0x00, 0xcc, 0x98, 0x01, 0xcc, 0x98, 0x01,
   0xcc, 0x98, 0x01, 0xcc, 0x98, 0x01, 0xcc, 0x98, 0x01, 0x98, 0x9d, 0x00,
   0x98, 0xfb, 0x00, 0x30, 0x00, 0x00, 0xe0, 0x10, 0x00, 0x80, 0x1f, 0x00,
   0x00, 0x00, 0x00, 0x00, 0x00, 0x00 };
