#define ascii0x2f_width 8
#define ascii0x2f_height 22
static unsigned char ascii0x2f_bits[] = {
   0x00, 0x00, 0x00, 0x00, 0xc0, 0x60, 0x60, 0x60, 0x30, 0x30, 0x30, 0x18,
   0x18, 0x18, 0x0c, 0x0c, 0x0c, 0x06, 0x06, 0x06, 0x03, 0x00 };
