#define ascii0x61_width 11
#define ascii0x61_height 22
static unsigned char ascii0x61_bits[] = {
   0x00, 0x00, 0x00, 0x00, 0x00, 0x00, 0x00, 0x00, 0x00, 0x00, 0x00, 0x00,
   0x00, 0x00, 0x00, 0x00, 0x7e, 0x00, 0xfe, 0x00, 0x80, 0x01, 0xf8, 0x01,
   0xfe, 0x01, 0x87, 0x01, 0x83, 0x01, 0xc3, 0x01, 0xfe, 0x01, 0xbc, 0x01,
   0x00, 0x00, 0x00, 0x00, 0x00, 0x00, 0x00, 0x00 };
