#define ascii0x2c_width 7
#define ascii0x2c_height 22
static unsigned char ascii0x2c_bits[] = {
   0x00, 0x00, 0x00, 0x00, 0x00, 0x00, 0x00, 0x00, 0x00, 0x00, 0x00, 0x00,
   0x00, 0x00, 0x00, 0x1c, 0x0c, 0x0c, 0x04, 0x06, 0x06, 0x00 };
