#define ascii0x69_width 5
#define ascii0x69_height 22
static unsigned char ascii0x69_bits[] = {
   0x00, 0x00, 0x00, 0x00, 0x00, 0x06, 0x06, 0x00, 0x06, 0x06, 0x06, 0x06,
   0x06, 0x06, 0x06, 0x06, 0x06, 0x06, 0x00, 0x00, 0x00, 0x00 };
