#define ascii0x62_width 11
#define ascii0x62_height 22
static unsigned char ascii0x62_bits[] = {
   0x00, 0x00, 0x00, 0x00, 0x00, 0x00, 0x00, 0x00, 0x06, 0x00, 0x06, 0x00,
   0x06, 0x00, 0x06, 0x00, 0xf6, 0x00, 0xfe, 0x01, 0x8e, 0x03, 0x06, 0x03,
   0x06, 0x03, 0x06, 0x03, 0x06, 0x03, 0x86, 0x01, 0xfe, 0x01, 0xfe, 0x00,
   0x00, 0x00, 0x00, 0x00, 0x00, 0x00, 0x00, 0x00 };
