#define ascii0x30_width 11
#define ascii0x30_height 22
static unsigned char ascii0x30_bits[] = {
   0x00, 0x00, 0x00, 0x00, 0x00, 0x00, 0x00, 0x00, 0x00, 0x00, 0xf8, 0x00,
   0xfc, 0x01, 0x8c, 0x01, 0x06, 0x03, 0x06, 0x03, 0x06, 0x03, 0x06, 0x03,
   0x06, 0x03, 0x06, 0x03, 0x06, 0x03, 0x8c, 0x01, 0xfc, 0x01, 0xf8, 0x00,
   0x00, 0x00, 0x00, 0x00, 0x00, 0x00, 0x00, 0x00 };
