#define ascii0x2b_width 15
#define ascii0x2b_height 22
static unsigned char ascii0x2b_bits[] = {
   0x00, 0x00, 0x00, 0x00, 0x00, 0x00, 0x00, 0x00, 0x00, 0x00, 0x00, 0x00,
   0x00, 0x00, 0x80, 0x01, 0x80, 0x01, 0x80, 0x01, 0x80, 0x01, 0x80, 0x01,
   0xfc, 0x3f, 0xfc, 0x3f, 0x80, 0x01, 0x80, 0x01, 0x80, 0x01, 0x80, 0x01,
   0x80, 0x01, 0x00, 0x00, 0x00, 0x00, 0x00, 0x00 };
