#define ascii0x2e_width 7
#define ascii0x2e_height 22
static unsigned char ascii0x2e_bits[] = {
   0x00, 0x00, 0x00, 0x00, 0x00, 0x00, 0x00, 0x00, 0x00, 0x00, 0x00, 0x00,
   0x00, 0x00, 0x00, 0x0c, 0x0c, 0x0c, 0x00, 0x00, 0x00, 0x00 };
