#define ascii0x4d_width 15
#define ascii0x4d_height 22
static unsigned char ascii0x4d_bits[] = {
   0x00, 0x00, 0x00, 0x00, 0x00, 0x00, 0x00, 0x00, 0x00, 0x00, 0x1c, 0x1c,
   0x1c, 0x1c, 0x3c, 0x1e, 0x2c, 0x1a, 0x6c, 0x1a, 0x4c, 0x19, 0xcc, 0x19,
   0xcc, 0x19, 0x8c, 0x18, 0x0c, 0x18, 0x0c, 0x18, 0x0c, 0x18, 0x0c, 0x18,
   0x00, 0x00, 0x00, 0x00, 0x00, 0x00, 0x00, 0x00 };
