#define ascii0x46_width 10
#define ascii0x46_height 22
static unsigned char ascii0x46_bits[] = {
   0x00, 0x00, 0x00, 0x00, 0x00, 0x00, 0x00, 0x00, 0x00, 0x00, 0xfc, 0x03,
   0xfc, 0x03, 0x0c, 0x00, 0x0c, 0x00, 0x0c, 0x00, 0xfc, 0x01, 0xfc, 0x01,
   0x0c, 0x00, 0x0c, 0x00, 0x0c, 0x00, 0x0c, 0x00, 0x0c, 0x00, 0x0c, 0x00,
   0x00, 0x00, 0x00, 0x00, 0x00, 0x00, 0x00, 0x00 };
