#define ascii0x4b_width 12
#define ascii0x4b_height 22
static unsigned char ascii0x4b_bits[] = {
   0x00, 0x00, 0x00, 0x00, 0x00, 0x00, 0x00, 0x00, 0x00, 0x00, 0x0c, 0x0e,
   0x0c, 0x07, 0x8c, 0x03, 0xcc, 0x01, 0xec, 0x00, 0x6c, 0x00, 0x7c, 0x00,
   0xfc, 0x00, 0xcc, 0x00, 0x8c, 0x01, 0x0c, 0x03, 0x0c, 0x07, 0x0c, 0x0e,
   0x00, 0x00, 0x00, 0x00, 0x00, 0x00, 0x00, 0x00 };
