#define ascii0x6a_width 7
#define ascii0x6a_height 22
static unsigned char ascii0x6a_bits[] = {
   0x00, 0x00, 0x00, 0x00, 0x00, 0x18, 0x18, 0x00, 0x1e, 0x1e, 0x18, 0x18,
   0x18, 0x18, 0x18, 0x18, 0x18, 0x18, 0x18, 0x18, 0x0f, 0x0f };
