#define ascii0x78_width 11
#define ascii0x78_height 22
static unsigned char ascii0x78_bits[] = {
   0x00, 0x00, 0x00, 0x00, 0x00, 0x00, 0x00, 0x00, 0x00, 0x00, 0x00, 0x00,
   0x00, 0x00, 0x00, 0x00, 0x8e, 0x03, 0x8c, 0x01, 0xd8, 0x00, 0x70, 0x00,
   0x70, 0x00, 0x70, 0x00, 0xf0, 0x00, 0xd8, 0x00, 0x8c, 0x01, 0x8e, 0x03,
   0x00, 0x00, 0x00, 0x00, 0x00, 0x00, 0x00, 0x00 };
