#define ascii0x27_width 5
#define ascii0x27_height 22
static unsigned char ascii0x27_bits[] = {
   0x00, 0x00, 0x00, 0x00, 0x06, 0x06, 0x06, 0x06, 0x06, 0x00, 0x00, 0x00,
   0x00, 0x00, 0x00, 0x00, 0x00, 0x00, 0x00, 0x00, 0x00, 0x00 };
